<svg width="30" height="25" viewBox="0 0 30 25" fill="none" xmlns="http://www.w3.org/2000/svg">
<rect width="30" height="25" fill="#F5F5F5"/>
<g clip-path="url(#clip0_0_1)">
<rect width="428" height="3739" transform="translate(-377 -38)" fill="#1E1E1E"/>
<g filter="url(#filter0_d_0_1)">
<rect width="428" height="101" transform="translate(-377 -38)" fill="#101010"/>
<rect width="100" height="100" transform="translate(-47.36 -37.5)" fill="#101010"/>
<path fill-rule="evenodd" clip-rule="evenodd" d="M0.140015 23.1667C0.140015 22.813 0.278894 22.4739 0.526101 22.2239C0.773308 21.9738 1.10859 21.8333 1.4582 21.8333H27.8218C28.1714 21.8333 28.5067 21.9738 28.7539 22.2239C29.0011 22.4739 29.14 22.813 29.14 23.1667C29.14 23.5203 29.0011 23.8594 28.7539 24.1095C28.5067 24.3595 28.1714 24.5 27.8218 24.5H1.4582C1.10859 24.5 0.773308 24.3595 0.526101 24.1095C0.278894 23.8594 0.140015 23.5203 0.140015 23.1667ZM0.140015 12.5C0.140015 12.1464 0.278894 11.8072 0.526101 11.5572C0.773308 11.3071 1.10859 11.1667 1.4582 11.1667H27.8218C28.1714 11.1667 28.5067 11.3071 28.7539 11.5572C29.0011 11.8072 29.14 12.1464 29.14 12.5C29.14 12.8536 29.0011 13.1928 28.7539 13.4428C28.5067 13.6929 28.1714 13.8333 27.8218 13.8333H1.4582C1.10859 13.8333 0.773308 13.6929 0.526101 13.4428C0.278894 13.1928 0.140015 12.8536 0.140015 12.5ZM0.140015 1.83333C0.140015 1.47971 0.278894 1.14057 0.526101 0.890525C0.773308 0.640476 1.10859 0.5 1.4582 0.5H27.8218C28.1714 0.5 28.5067 0.640476 28.7539 0.890525C29.0011 1.14057 29.14 1.47971 29.14 1.83333C29.14 2.18696 29.0011 2.52609 28.7539 2.77614C28.5067 3.02619 28.1714 3.16667 27.8218 3.16667H1.4582C1.10859 3.16667 0.773308 3.02619 0.526101 2.77614C0.278894 2.52609 0.140015 2.18696 0.140015 1.83333Z" fill="#E6EDEE"/>
</g>
</g>
<defs>
<filter id="filter0_d_0_1" x="-381" y="-38" width="437.64" height="109" filterUnits="userSpaceOnUse" color-interpolation-filters="sRGB">
<feFlood flood-opacity="0" result="BackgroundImageFix"/>
<feColorMatrix in="SourceAlpha" type="matrix" values="0 0 0 0 0 0 0 0 0 0 0 0 0 0 0 0 0 0 127 0" result="hardAlpha"/>
<feOffset dy="4"/>
<feGaussianBlur stdDeviation="2"/>
<feComposite in2="hardAlpha" operator="out"/>
<feColorMatrix type="matrix" values="0 0 0 0 0.117647 0 0 0 0 0.117647 0 0 0 0 0.117647 0 0 0 0.25 0"/>
<feBlend mode="normal" in2="BackgroundImageFix" result="effect1_dropShadow_0_1"/>
<feBlend mode="normal" in="SourceGraphic" in2="effect1_dropShadow_0_1" result="shape"/>
</filter>
<clipPath id="clip0_0_1">
<rect width="428" height="3739" fill="white" transform="translate(-377 -38)"/>
</clipPath>
</defs>
</svg>
